<?xml version="1.0" standalone="no"?><!DOCTYPE svg PUBLIC "-//W3C//DTD SVG 1.1//EN" "http://www.w3.org/Graphics/SVG/1.1/DTD/svg11.dtd"><svg t="1590990521437" class="icon" viewBox="0 0 1024 1024" version="1.1" xmlns="http://www.w3.org/2000/svg" p-id="700" xmlns:xlink="http://www.w3.org/1999/xlink" width="200" height="200"><defs><style type="text/css"></style></defs><path d="M512 7.11187392L7.11187392 267.97073906 1016.88812608 267.97073906Z" p-id="701"></path><path d="M7.11187392 932.74010502l1009.77625216 0 0 84.14802106-1009.77625216 0 0-84.14802106Z" p-id="702"></path><path d="M141.74870757 343.70395799l0 504.88812604c0 25.24440629 16.82960421 42.07401052 42.07401049 42.07401051s42.07401052-16.82960421 42.07401052-42.07401051L225.89672858 343.70395799c0-25.24440629-16.82960421-42.07401052-42.07401052-42.07401051S141.74870757 318.4595517 141.74870757 343.70395799z" p-id="703"></path><path d="M352.11876009 343.70395799l0 504.88812604c0 25.24440629 16.82960421 42.07401052 42.07401051 42.07401051s42.07401052-16.82960421 42.07401051-42.07401051L436.26678111 343.70395799c0-25.24440629-16.82960421-42.07401052-42.07401051-42.07401051S352.11876009 318.4595517 352.11876009 343.70395799z" p-id="704"></path><path d="M587.73321889 343.70395799l0 504.88812604c0 25.24440629 16.82960421 42.07401052 42.07401051 42.07401051s42.07401052-16.82960421 42.07401051-42.07401051L671.88123991 343.70395799c0-25.24440629-16.82960421-42.07401052-42.07401051-42.07401051S587.73321889 318.4595517 587.73321889 343.70395799z" p-id="705"></path><path d="M806.51807354 343.70395799l0 504.88812604c0 25.24440629 16.82960421 42.07401052 42.07401049 42.07401051s42.07401052-16.82960421 42.07401051-42.07401051L890.66609454 343.70395799c0-25.24440629-16.82960421-42.07401052-42.07401051-42.07401051S806.51807354 318.4595517 806.51807354 343.70395799z" p-id="706"></path></svg>